<?xml version="1.0" standalone="no"?>
<!DOCTYPE svg PUBLIC "-//W3C//DTD SVG 20010904//EN"
 "http://www.w3.org/TR/2001/REC-SVG-20010904/DTD/svg10.dtd">
<svg version="1.0" xmlns="http://www.w3.org/2000/svg"
 width="261.000000pt" height="261.000000pt" viewBox="0 0 261.000000 261.000000"
 preserveAspectRatio="xMidYMid meet">
<metadata>
Created by potrace 1.14, written by Peter Selinger 2001-2017
</metadata>
<g transform="translate(0.000000,261.000000) scale(0.100000,-0.100000)"
fill="#000000" stroke="none">
<path d="M515 2600 c-234 -37 -420 -201 -492 -435 -17 -56 -18 -112 -18 -860
0 -748 1 -804 18 -860 59 -192 195 -337 383 -408 l59 -22 814 -3 c898 -3 867
-5 1000 61 90 43 215 168 258 258 66 134 64 103 61 990 l-3 804 -23 68 c-48
142 -170 280 -307 348 -127 63 -98 61 -930 64 -439 2 -785 0 -820 -5z m517
-743 c86 -31 150 -73 217 -140 l53 -55 -67 -51 -68 -51 -48 50 c-31 32 -74 63
-116 83 -60 28 -78 32 -153 32 -75 0 -93 -4 -152 -32 -84 -39 -147 -103 -190
-191 -31 -63 -33 -72 -33 -177 0 -104 2 -114 32 -176 42 -84 108 -150 191
-191 60 -30 75 -33 152 -33 107 0 174 29 260 110 l59 57 66 -51 67 -50 -47
-50 c-62 -67 -142 -118 -229 -149 -92 -33 -241 -36 -326 -8 -213 72 -352 225
-396 436 -36 170 14 348 135 482 85 94 198 158 321 182 61 12 206 -3 272 -27z
m682 -352 c77 -189 142 -342 145 -340 2 3 66 157 141 343 l136 337 87 3 c48 1
87 -1 87 -5 0 -7 -438 -1090 -448 -1107 -2 -5 -8 -2 -12 5 -5 8 -106 255 -225
549 -119 294 -219 541 -222 548 -4 9 16 12 83 12 l89 0 139 -345z"/>
</g>
</svg>
