<?xml version="1.0" encoding="UTF-8"?>
<svg id="Layer_1" data-name="Layer 1" xmlns="http://www.w3.org/2000/svg" xmlns:xlink="http://www.w3.org/1999/xlink" viewBox="0 0 435.85 156.28">
  <defs>
    <linearGradient id="linear-gradient" x1="306.17" y1="-346.15" x2="258.7" y2="-476.97" gradientTransform="translate(0 -294) scale(1 -1)" gradientUnits="userSpaceOnUse">
      <stop offset=".09" stop-color="#a8d982"/>
      <stop offset=".12" stop-color="#9ccd86"/>
      <stop offset=".22" stop-color="#83b191"/>
      <stop offset=".32" stop-color="#709d99"/>
      <stop offset=".42" stop-color="#65919e"/>
      <stop offset=".52" stop-color="#628ea0"/>
      <stop offset=".74" stop-color="#7293a2"/>
      <stop offset=".91" stop-color="#7895a4"/>
    </linearGradient>
    <linearGradient id="linear-gradient-2" x1="347.9" y1="-8.19" x2="374.74" y2="19.39" gradientTransform="translate(-40.36 -43.07) rotate(11.6) scale(1 -1)" gradientUnits="userSpaceOnUse">
      <stop offset=".09" stop-color="#a8d982"/>
      <stop offset=".75" stop-color="#628ea0"/>
      <stop offset=".85" stop-color="#658fa0"/>
      <stop offset=".94" stop-color="#6f92a2"/>
      <stop offset=".98" stop-color="#7895a4"/>
    </linearGradient>
  </defs>
  <path d="m288.25,139.26c-3.63,2.58-7.38,4.9-12.01,5.17-.93.05-1.45.69-2.02,1.3-1.14,1.21-2.36,2.34-3.76,3.25-1.99,1.28-4.16,1.28-5.06.07-.88-1.18-.39-2.7,1.48-4.52.26-.25.61-.4,1.28-.83-2.81-1.35-5-2.79-7.76-1.19-.78.45-1.72.66-2.62.86-1.58.36-3.04-.2-3.58-1.36-.62-1.33-.39-2.87.75-3.49,2.46-1.34,2.72-3.28,2.3-5.65-.05-.27-.01-.56.03-.83.19-1.14.59-2.21,1.86-2.47,1.23-.26,2.13.39,2.76,1.4.89,1.42,1.48,3.01,1.73,4.63.27,1.73.99,2.47,2.76,2.69,2.18.27,4.3.99,6.48,1.37,1.78.31,2.89.47,2.51-2.14-.18-1.26,0-2.57.54-3.79.38-.87.86-1.63,1.64-2.17.9-.61,1.85-.83,2.86-.28,1.01.55,1.29,1.47,1.27,2.57-.03,1.62-1.15,2.84-1.77,4.75,3.29-1.36,5.75-3.11,7.86-5.43.71-.78.67-1.39-.12-2.09-1.52-1.35-2.16-3.17-2.46-5.12-.07-.45-.15-.92-.12-1.37.08-1.48.84-2.55,1.93-2.69,1.28-.16,2.09.56,2.65,1.59.3.56.48,1.19.71,1.79.25.66.29,1.43,1.07,1.94,1.44-2.78,1.76-5.8,2.3-8.77.17-.95-.46-1.24-1.19-1.55-1.77-.75-3.04-2.04-3.8-3.82-.84-1.96-.62-3.66.62-4.54,1.14-.81,2.46-.56,4.22.8.21.16.45.27.8.48.64-.95.4-1.98.46-2.94.11-1.65.01-3.33.25-4.96.23-1.56-.27-2.06-1.8-2.25-1.9-.23-3.38-1.41-4.53-2.92-.75-.98-1.17-2.09-.98-3.36.41-2.59,2.89-3.55,4.97-1.97.79.6,1.18,1.65,2.44,2.1.39-3.33.19-6.6.27-9.85.02-.93-.75-1.16-1.41-1.49-1.26-.62-2.36-1.44-3.21-2.56-1.31-1.72-1.52-3.64-.54-4.84,1.01-1.24,2.59-1.25,4.73-.05.15.09.34.12.7.24.52-.75.31-1.7.52-2.53.25-.98.53-2.05.18-2.99-.36-.96-1.59-.72-2.38-1.14-1.54-.81-2.66-1.98-3.35-3.55-.59-1.34-.3-2.8.61-3.56.9-.75,2.43-.8,3.63-.05.46.29.84.7,1.24,1.08.39.37.58.96,1.38,1.09.8-2.15,2.12-4.16.08-6.5-.89-1.02-1.09-2.53-.98-3.95.09-1.13.33-2.26,1.61-2.64,1.22-.36,2.15.09,2.77,1.22.12.23.35.4.64.72.76-.98,1.41-1.95,2.2-2.8.94-1.02,1.99-1.95,3.5-1.99.66-.02,1.34.08,1.67.74.38.76-.14,1.18-.72,1.54-.55.34-1.09.7-1.31,1.36,2.98,2.88,1.96,6.68-2.27,8.48-.68.29-1.78-.02-1.83,1.23.43.59,1.03.16,1.54.26.96.2,1.79.51,2.07,1.56.28,1.05.13,2.07-.75,2.77-1,.8-2.06,1.57-3.18,2.19-1.08.6-1.69,1.35-1.64,2.61.05,1.36-.63,2.69-.36,3.99.57.44.98.09,1.4,0,1.11-.23,2.06.06,2.61,1.07.53.97.36,1.97-.29,2.86-.82,1.13-1.83,2.08-2.98,2.85-.84.56-1.31,1.24-1.31,2.26,0,2.21-.03,4.42-.08,6.63-.02,1.06.39,1.33,1.48,1.36,2.48.09,3.28,1.35,2.3,3.65-.74,1.74-1.24,3.72-3.13,4.73-.55.29-.75.75-.78,1.35-.16,3.21-.32,6.42-.48,9.58.75.61,1.3,0,1.88-.06.98-.11,1.87,0,2.45.88.65.97.47,1.97-.19,2.83-1.12,1.47-2.36,2.85-3.82,3.97-.86.66-1.35,1.3-1.51,2.43-.5,3.47-1.32,6.88-2.9,10.04-.44.88-.41,1.76-.37,2.69.07,1.66.12,3.31.13,4.97,0,1.27-.3,2.42-1.65,2.9-1.39.5-2.29-.19-2.98-1.32-.25-.35-.16-.83-.47-1.16h0c-.38-.28-.74-.39-1.07.07h-.01c-.25.11-.43.3-.6.51h0v.06Z" style="fill: url(#linear-gradient);"/>
  <path d="m316.45,15.47c-5.25,1.71-10.49,3.42-15.73,5.15l-.14.05c-1.8-5.75,1.35-11.89,7.08-13.78,5.75-1.9,11.95,1.19,13.91,6.91l.42,1.26,1.39,4.2c.47,1.41-.3,2.93-1.71,3.4-1.41.46-2.94-.3-3.4-1.71-.6-1.83-1.21-3.65-1.81-5.48h-.01Zm-6.61,22.62l1.08,3.29c.69,2.1-2.47,3.09-3.15,1.04l-1.08-3.29c-.68-2.06,2.47-3.09,3.15-1.04h0Zm4.46-1.47l1.09,3.29c.46,1.4-1.01,2.66-2.32,2-.38-.19-.68-.52-.83-.96l-1.09-3.29c-.69-2.08,2.46-3.1,3.15-1.04h0Zm4.46-1.47l1.08,3.29c.46,1.4-1.01,2.66-2.32,2-.38-.19-.68-.53-.83-.96l-1.08-3.29c-.69-2.09,2.47-3.09,3.15-1.04h0Zm2.39,2.86l-1.09-3.31c-.51-2.02,2.45-3.14,3.15-1.02l1.09,3.3c.14.43.09.88-.1,1.25-.66,1.31-2.59,1.17-3.05-.23h0Zm-4.67-5.3c-3.54,1.18-7.08,2.35-10.62,3.52-2.71.89-3.5-3.16-1.28-3.89l9.04-2.98,1.98-.65c.84-.28.41-1.59-.43-1.31l-1.98.66-6.62,2.18-2.42.8c-.54.18-1.1.12-1.56-.12-1.62-.82-1.45-3.2.28-3.77l11.02-3.64c.84-.28.41-1.59-.43-1.31l-11.02,3.64c-.54.18-1.1.12-1.56-.12-1.62-.82-1.45-3.2.28-3.77,4.8-1.59,9.61-3.16,14.42-4.73l1.38,4.18c.7,2.14,3.01,3.3,5.14,2.59,2.14-.71,3.3-3.01,2.59-5.15l-1.39-4.2c5.74-1.79,11.89,1.33,13.78,7.08,1.91,5.79-1.24,12.04-7.03,13.94l-4.31,1.42-.13-.55-1.08-3.29c-.88-2.68-4.69-2.79-5.72-.15-1.02-.64-1.7-.61-2.33-.4h0v.02Z" style="fill: url(#linear-gradient-2); fill-rule: evenodd;"/>
  <g>
    <path d="m51.61,117.08c3.84,0,7.36-.91,10.57-2.75,3.21-1.83,5.83-4.27,7.88-7.33l7.83,5.85c-3,4.08-6.77,7.32-11.29,9.72-4.53,2.4-9.53,3.6-14.98,3.6-4.5,0-8.73-.87-12.69-2.61s-7.41-4.1-10.35-7.06c-2.94-2.97-5.27-6.45-6.98-10.44-1.71-3.99-2.57-8.26-2.57-12.82s.86-8.83,2.57-12.83c1.71-3.99,4.03-7.47,6.98-10.44,2.94-2.97,6.39-5.32,10.35-7.06s8.19-2.61,12.69-2.61c5.46,0,10.45,1.2,14.98,3.6s8.29,5.64,11.29,9.72l-7.83,5.85c-2.04-3.06-4.67-5.5-7.88-7.33-3.21-1.83-6.74-2.75-10.57-2.75-3.12,0-6.05.63-8.78,1.89s-5.12,2.97-7.16,5.13c-2.04,2.16-3.66,4.68-4.86,7.56s-1.8,5.97-1.8,9.27.6,6.39,1.8,9.27c1.2,2.88,2.82,5.4,4.86,7.56,2.04,2.16,4.42,3.87,7.16,5.13,2.73,1.26,5.65,1.89,8.78,1.89h0Z" style="fill: #ba9bc9;"/>
    <path d="m104.84,78.74c3.29,0,6.39.63,9.3,1.89s5.45,2.97,7.64,5.13c2.19,2.16,3.91,4.71,5.17,7.65s1.89,6.06,1.89,9.36v23.31h-9.27v-4.36c-2.04,1.55-4.29,2.76-6.75,3.65s-5.1,1.34-7.92,1.34c-3.3,0-6.41-.63-9.32-1.89-2.91-1.26-5.44-2.97-7.6-5.13s-3.87-4.69-5.13-7.6c-1.26-2.91-1.89-6.01-1.89-9.31s.63-6.42,1.89-9.36,2.96-5.49,5.12-7.65,4.69-3.87,7.59-5.13c2.91-1.26,6-1.89,9.3-1.89h-.02Zm.04,38.69c2.04,0,3.94-.39,5.71-1.18,1.77-.78,3.31-1.84,4.63-3.17s2.37-2.88,3.15-4.66,1.17-3.67,1.17-5.66-.39-3.97-1.17-5.75-1.83-3.34-3.15-4.66c-1.32-1.33-2.87-2.38-4.63-3.17-1.77-.78-3.68-1.18-5.71-1.18s-3.95.39-5.71,1.18c-1.77.78-3.32,1.84-4.63,3.17-1.32,1.33-2.37,2.88-3.15,4.66-.78,1.78-1.17,3.7-1.17,5.75s.39,3.88,1.17,5.66c.78,1.78,1.83,3.34,3.15,4.66,1.32,1.33,2.86,2.38,4.63,3.17,1.77.78,3.67,1.18,5.71,1.18Z" style="fill: #ba9bc9;"/>
    <path d="m170.59,82.19c2.04,1.33,3.78,3,5.22,5l-5.22,4.15-1.98,1.62c-1.02-1.5-2.36-2.7-4-3.6-1.65-.9-3.44-1.35-5.36-1.35-1.56,0-3.03.3-4.41.9s-2.58,1.41-3.6,2.43-1.83,2.22-2.43,3.6c-.6,1.38-.9,2.85-.9,4.41v26.73h-9.27v-47.34h9.27v3.45c1.62-1.09,3.39-1.94,5.31-2.54,1.92-.61,3.93-.91,6.03-.91s4.11.3,6.03.91,3.69,1.45,5.31,2.54Z" style="fill: #ba9bc9;"/>
    <path d="m207.13,105.56h-18.09c.36,1.62.97,3.14,1.84,4.54.87,1.41,1.93,2.63,3.2,3.65,1.26,1.02,2.67,1.82,4.23,2.38,1.56.57,3.21.85,4.95.85,2.1,0,4.06-.42,5.89-1.26,1.83-.84,3.43-2.01,4.82-3.51h10.89c-.36.9-.8,1.76-1.3,2.57-.51.81-1.07,1.61-1.67,2.38-2.16,2.76-4.86,4.97-8.1,6.62s-6.75,2.47-10.53,2.47c-3.3,0-6.39-.61-9.27-1.84-2.88-1.23-5.4-2.93-7.56-5.08-2.16-2.16-3.86-4.68-5.08-7.56-1.23-2.88-1.84-5.97-1.84-9.27s.61-6.39,1.84-9.27c1.23-2.88,2.92-5.4,5.08-7.56s4.68-3.85,7.56-5.08,5.97-1.85,9.27-1.85c3.78,0,7.29.83,10.53,2.48s5.94,3.89,8.1,6.71c1.98,2.4,3.42,5.22,4.32,8.46.54,1.92.81,3.96.81,6.12,0,1.08-.09,2.1-.27,3.06h-19.62Zm-3.87-17.56c-2.94,0-5.57.76-7.88,2.27-2.31,1.51-4.07,3.52-5.26,6.01h26.28c-.3-.47-.58-.95-.85-1.42-.27-.48-.56-.92-.86-1.34-1.38-1.72-3.06-3.07-5.04-4.05s-4.11-1.47-6.39-1.47Z" style="fill: #ba9bc9;"/>
    <path d="m274,60.29h9.99l-26.82,66.24-26.82-66.24h9.99l16.83,41.4,16.83-41.4h0Z" style="fill: #ba9bc9;"/>
    <path d="m351.13,81.8c2.85,1.92,5.11,4.4,6.77,7.43s2.5,6.34,2.5,9.94v27.09h-9.27v-27.09c0-1.56-.3-3.04-.9-4.46-.6-1.41-1.43-2.64-2.48-3.69-1.05-1.05-2.27-1.87-3.66-2.48-1.39-.6-2.86-.9-4.43-.9s-3.06.3-4.47.9c-1.42.6-2.64,1.43-3.66,2.48s-1.84,2.28-2.44,3.69-.9,2.9-.9,4.46v27.09h-9.27v-47.88h9.27l.07,3.42c1.62-1.08,3.41-1.92,5.36-2.52,1.95-.6,3.98-.9,6.08-.9s4.13.3,6.08.9c1.95.6,3.74,1.44,5.36,2.52h0Z" style="fill: #ba9bc9;"/>
    <path d="m396.94,105.56h-18.09c.36,1.62.97,3.14,1.84,4.54.87,1.41,1.93,2.63,3.2,3.65,1.26,1.02,2.67,1.82,4.23,2.38,1.56.57,3.21.85,4.95.85,2.1,0,4.06-.42,5.89-1.26,1.83-.84,3.43-2.01,4.82-3.51h10.89c-.36.9-.8,1.76-1.3,2.57-.51.81-1.07,1.61-1.67,2.38-2.16,2.76-4.86,4.97-8.1,6.62-3.24,1.65-6.75,2.47-10.53,2.47-3.3,0-6.39-.61-9.27-1.84-2.88-1.23-5.4-2.93-7.56-5.08-2.16-2.16-3.86-4.68-5.08-7.56-1.23-2.88-1.84-5.97-1.84-9.27s.61-6.39,1.84-9.27c1.23-2.88,2.92-5.4,5.08-7.56s4.68-3.85,7.56-5.08,5.97-1.85,9.27-1.85c3.78,0,7.29.83,10.53,2.48s5.94,3.89,8.1,6.71c1.98,2.4,3.42,5.22,4.32,8.46.54,1.92.81,3.96.81,6.12,0,1.08-.09,2.1-.27,3.06h-19.62Zm-3.87-17.56c-2.94,0-5.57.76-7.88,2.27-2.31,1.51-4.07,3.52-5.26,6.01h26.28c-.3-.47-.58-.95-.85-1.42-.27-.48-.56-.92-.86-1.34-1.38-1.72-3.06-3.07-5.04-4.05s-4.11-1.47-6.39-1.47h0Z" style="fill: #ba9bc9;"/>
  </g>
  <g>
    <path d="m51.61,117.08c3.84,0,7.36-.91,10.57-2.75,3.21-1.83,5.83-4.27,7.88-7.33l7.83,5.85c-3,4.08-6.77,7.32-11.29,9.72-4.53,2.4-9.53,3.6-14.98,3.6-4.5,0-8.73-.87-12.69-2.61s-7.41-4.1-10.35-7.06c-2.94-2.97-5.27-6.45-6.98-10.44-1.71-3.99-2.57-8.26-2.57-12.82s.86-8.83,2.57-12.83c1.71-3.99,4.03-7.47,6.98-10.44,2.94-2.97,6.39-5.32,10.35-7.06s8.19-2.61,12.69-2.61c5.46,0,10.45,1.2,14.98,3.6s8.29,5.64,11.29,9.72l-7.83,5.85c-2.04-3.06-4.67-5.5-7.88-7.33-3.21-1.83-6.74-2.75-10.57-2.75-3.12,0-6.05.63-8.78,1.89s-5.12,2.97-7.16,5.13c-2.04,2.16-3.66,4.68-4.86,7.56s-1.8,5.97-1.8,9.27.6,6.39,1.8,9.27c1.2,2.88,2.82,5.4,4.86,7.56,2.04,2.16,4.42,3.87,7.16,5.13,2.73,1.26,5.65,1.89,8.78,1.89h0Z" style="fill: #6ba0b6;"/>
    <path d="m104.84,78.74c3.29,0,6.39.63,9.3,1.89s5.45,2.97,7.64,5.13c2.19,2.16,3.91,4.71,5.17,7.65s1.89,6.06,1.89,9.36v23.31h-9.27v-4.36c-2.04,1.55-4.29,2.76-6.75,3.65s-5.1,1.34-7.92,1.34c-3.3,0-6.41-.63-9.32-1.89-2.91-1.26-5.44-2.97-7.6-5.13s-3.87-4.69-5.13-7.6c-1.26-2.91-1.89-6.01-1.89-9.31s.63-6.42,1.89-9.36,2.96-5.49,5.12-7.65,4.69-3.87,7.59-5.13c2.91-1.26,6-1.89,9.3-1.89h-.02Zm.04,38.69c2.04,0,3.94-.39,5.71-1.18,1.77-.78,3.31-1.84,4.63-3.17s2.37-2.88,3.15-4.66,1.17-3.67,1.17-5.66-.39-3.97-1.17-5.75-1.83-3.34-3.15-4.66c-1.32-1.33-2.87-2.38-4.63-3.17-1.77-.78-3.68-1.18-5.71-1.18s-3.95.39-5.71,1.18c-1.77.78-3.32,1.84-4.63,3.17-1.32,1.33-2.37,2.88-3.15,4.66-.78,1.78-1.17,3.7-1.17,5.75s.39,3.88,1.17,5.66c.78,1.78,1.83,3.34,3.15,4.66,1.32,1.33,2.86,2.38,4.63,3.17,1.77.78,3.67,1.18,5.71,1.18Z" style="fill: #6ba0b6;"/>
    <path d="m170.59,82.19c2.04,1.33,3.78,3,5.22,5l-5.22,4.15-1.98,1.62c-1.02-1.5-2.36-2.7-4-3.6-1.65-.9-3.44-1.35-5.36-1.35-1.56,0-3.03.3-4.41.9s-2.58,1.41-3.6,2.43-1.83,2.22-2.43,3.6c-.6,1.38-.9,2.85-.9,4.41v26.73h-9.27v-47.34h9.27v3.45c1.62-1.09,3.39-1.94,5.31-2.54,1.92-.61,3.93-.91,6.03-.91s4.11.3,6.03.91,3.69,1.45,5.31,2.54Z" style="fill: #6ba0b6;"/>
    <path d="m207.13,105.56h-18.09c.36,1.62.97,3.14,1.84,4.54.87,1.41,1.93,2.63,3.2,3.65,1.26,1.02,2.67,1.82,4.23,2.38,1.56.57,3.21.85,4.95.85,2.1,0,4.06-.42,5.89-1.26,1.83-.84,3.43-2.01,4.82-3.51h10.89c-.36.9-.8,1.76-1.3,2.57-.51.81-1.07,1.61-1.67,2.38-2.16,2.76-4.86,4.97-8.1,6.62s-6.75,2.47-10.53,2.47c-3.3,0-6.39-.61-9.27-1.84-2.88-1.23-5.4-2.93-7.56-5.08-2.16-2.16-3.86-4.68-5.08-7.56-1.23-2.88-1.84-5.97-1.84-9.27s.61-6.39,1.84-9.27c1.23-2.88,2.92-5.4,5.08-7.56s4.68-3.85,7.56-5.08,5.97-1.85,9.27-1.85c3.78,0,7.29.83,10.53,2.48s5.94,3.89,8.1,6.71c1.98,2.4,3.42,5.22,4.32,8.46.54,1.92.81,3.96.81,6.12,0,1.08-.09,2.1-.27,3.06h-19.62Zm-3.87-17.56c-2.94,0-5.57.76-7.88,2.27-2.31,1.51-4.07,3.52-5.26,6.01h26.28c-.3-.47-.58-.95-.85-1.42-.27-.48-.56-.92-.86-1.34-1.38-1.72-3.06-3.07-5.04-4.05s-4.11-1.47-6.39-1.47Z" style="fill: #6ba0b6;"/>
    <path d="m274,60.29h9.99l-26.82,66.24-26.82-66.24h9.99l16.83,41.4,16.83-41.4h0Z" style="fill: #6ba0b6;"/>
    <path d="m351.13,81.8c2.85,1.92,5.11,4.4,6.77,7.43s2.5,6.34,2.5,9.94v27.09h-9.27v-27.09c0-1.56-.3-3.04-.9-4.46-.6-1.41-1.43-2.64-2.48-3.69-1.05-1.05-2.27-1.87-3.66-2.48-1.39-.6-2.86-.9-4.43-.9s-3.06.3-4.47.9c-1.42.6-2.64,1.43-3.66,2.48s-1.84,2.28-2.44,3.69-.9,2.9-.9,4.46v27.09h-9.27v-47.88h9.27l.07,3.42c1.62-1.08,3.41-1.92,5.36-2.52,1.95-.6,3.98-.9,6.08-.9s4.13.3,6.08.9c1.95.6,3.74,1.44,5.36,2.52h0Z" style="fill: #6ba0b6;"/>
    <path d="m396.94,105.56h-18.09c.36,1.62.97,3.14,1.84,4.54.87,1.41,1.93,2.63,3.2,3.65,1.26,1.02,2.67,1.82,4.23,2.38,1.56.57,3.21.85,4.95.85,2.1,0,4.06-.42,5.89-1.26,1.83-.84,3.43-2.01,4.82-3.51h10.89c-.36.9-.8,1.76-1.3,2.57-.51.81-1.07,1.61-1.67,2.38-2.16,2.76-4.86,4.97-8.1,6.62-3.24,1.65-6.75,2.47-10.53,2.47-3.3,0-6.39-.61-9.27-1.84-2.88-1.23-5.4-2.93-7.56-5.08-2.16-2.16-3.86-4.68-5.08-7.56-1.23-2.88-1.84-5.97-1.84-9.27s.61-6.39,1.84-9.27c1.23-2.88,2.92-5.4,5.08-7.56s4.68-3.85,7.56-5.08,5.97-1.85,9.27-1.85c3.78,0,7.29.83,10.53,2.48s5.94,3.89,8.1,6.71c1.98,2.4,3.42,5.22,4.32,8.46.54,1.92.81,3.96.81,6.12,0,1.08-.09,2.1-.27,3.06h-19.62Zm-3.87-17.56c-2.94,0-5.57.76-7.88,2.27-2.31,1.51-4.07,3.52-5.26,6.01h26.28c-.3-.47-.58-.95-.85-1.42-.27-.48-.56-.92-.86-1.34-1.38-1.72-3.06-3.07-5.04-4.05s-4.11-1.47-6.39-1.47h0Z" style="fill: #6ba0b6;"/>
  </g>
  <g>
    <path d="m51.61,117.08c3.84,0,7.36-.91,10.57-2.75,3.21-1.83,5.83-4.27,7.88-7.33l7.83,5.85c-3,4.08-6.77,7.32-11.29,9.72-4.53,2.4-9.53,3.6-14.98,3.6-4.5,0-8.73-.87-12.69-2.61s-7.41-4.1-10.35-7.06c-2.94-2.97-5.27-6.45-6.98-10.44-1.71-3.99-2.57-8.26-2.57-12.82s.86-8.83,2.57-12.83c1.71-3.99,4.03-7.47,6.98-10.44,2.94-2.97,6.39-5.32,10.35-7.06s8.19-2.61,12.69-2.61c5.46,0,10.45,1.2,14.98,3.6s8.29,5.64,11.29,9.72l-7.83,5.85c-2.04-3.06-4.67-5.5-7.88-7.33-3.21-1.83-6.74-2.75-10.57-2.75-3.12,0-6.05.63-8.78,1.89s-5.12,2.97-7.16,5.13c-2.04,2.16-3.66,4.68-4.86,7.56s-1.8,5.97-1.8,9.27.6,6.39,1.8,9.27c1.2,2.88,2.82,5.4,4.86,7.56,2.04,2.16,4.42,3.87,7.16,5.13,2.73,1.26,5.65,1.89,8.78,1.89h0Z" style="fill: #6ba0b6;"/>
    <path d="m104.84,78.74c3.29,0,6.39.63,9.3,1.89s5.45,2.97,7.64,5.13c2.19,2.16,3.91,4.71,5.17,7.65s1.89,6.06,1.89,9.36v23.31h-9.27v-4.36c-2.04,1.55-4.29,2.76-6.75,3.65s-5.1,1.34-7.92,1.34c-3.3,0-6.41-.63-9.32-1.89-2.91-1.26-5.44-2.97-7.6-5.13s-3.87-4.69-5.13-7.6c-1.26-2.91-1.89-6.01-1.89-9.31s.63-6.42,1.89-9.36,2.96-5.49,5.12-7.65,4.69-3.87,7.59-5.13c2.91-1.26,6-1.89,9.3-1.89h-.02Zm.04,38.69c2.04,0,3.94-.39,5.71-1.18,1.77-.78,3.31-1.84,4.63-3.17s2.37-2.88,3.15-4.66,1.17-3.67,1.17-5.66-.39-3.97-1.17-5.75-1.83-3.34-3.15-4.66c-1.32-1.33-2.87-2.38-4.63-3.17-1.77-.78-3.68-1.18-5.71-1.18s-3.95.39-5.71,1.18c-1.77.78-3.32,1.84-4.63,3.17-1.32,1.33-2.37,2.88-3.15,4.66-.78,1.78-1.17,3.7-1.17,5.75s.39,3.88,1.17,5.66c.78,1.78,1.83,3.34,3.15,4.66,1.32,1.33,2.86,2.38,4.63,3.17,1.77.78,3.67,1.18,5.71,1.18Z" style="fill: #6ba0b6;"/>
    <path d="m170.59,82.19c2.04,1.33,3.78,3,5.22,5l-5.22,4.15-1.98,1.62c-1.02-1.5-2.36-2.7-4-3.6-1.65-.9-3.44-1.35-5.36-1.35-1.56,0-3.03.3-4.41.9s-2.58,1.41-3.6,2.43-1.83,2.22-2.43,3.6c-.6,1.38-.9,2.85-.9,4.41v26.73h-9.27v-47.34h9.27v3.45c1.62-1.09,3.39-1.94,5.31-2.54,1.92-.61,3.93-.91,6.03-.91s4.11.3,6.03.91,3.69,1.45,5.31,2.54Z" style="fill: #6ba0b6;"/>
    <path d="m207.13,105.56h-18.09c.36,1.62.97,3.14,1.84,4.54.87,1.41,1.93,2.63,3.2,3.65,1.26,1.02,2.67,1.82,4.23,2.38,1.56.57,3.21.85,4.95.85,2.1,0,4.06-.42,5.89-1.26,1.83-.84,3.43-2.01,4.82-3.51h10.89c-.36.9-.8,1.76-1.3,2.57-.51.81-1.07,1.61-1.67,2.38-2.16,2.76-4.86,4.97-8.1,6.62s-6.75,2.47-10.53,2.47c-3.3,0-6.39-.61-9.27-1.84-2.88-1.23-5.4-2.93-7.56-5.08-2.16-2.16-3.86-4.68-5.08-7.56-1.23-2.88-1.84-5.97-1.84-9.27s.61-6.39,1.84-9.27c1.23-2.88,2.92-5.4,5.08-7.56s4.68-3.85,7.56-5.08,5.97-1.85,9.27-1.85c3.78,0,7.29.83,10.53,2.48s5.94,3.89,8.1,6.71c1.98,2.4,3.42,5.22,4.32,8.46.54,1.92.81,3.96.81,6.12,0,1.08-.09,2.1-.27,3.06h-19.62Zm-3.87-17.56c-2.94,0-5.57.76-7.88,2.27-2.31,1.51-4.07,3.52-5.26,6.01h26.28c-.3-.47-.58-.95-.85-1.42-.27-.48-.56-.92-.86-1.34-1.38-1.72-3.06-3.07-5.04-4.05s-4.11-1.47-6.39-1.47Z" style="fill: #6ba0b6;"/>
    <path d="m274,60.29h9.99l-26.82,66.24-26.82-66.24h9.99l16.83,41.4,16.83-41.4h0Z" style="fill: #6ba0b6;"/>
    <path d="m351.13,81.8c2.85,1.92,5.11,4.4,6.77,7.43s2.5,6.34,2.5,9.94v27.09h-9.27v-27.09c0-1.56-.3-3.04-.9-4.46-.6-1.41-1.43-2.64-2.48-3.69-1.05-1.05-2.27-1.87-3.66-2.48-1.39-.6-2.86-.9-4.43-.9s-3.06.3-4.47.9c-1.42.6-2.64,1.43-3.66,2.48s-1.84,2.28-2.44,3.69-.9,2.9-.9,4.46v27.09h-9.27v-47.88h9.27l.07,3.42c1.62-1.08,3.41-1.92,5.36-2.52,1.95-.6,3.98-.9,6.08-.9s4.13.3,6.08.9c1.95.6,3.74,1.44,5.36,2.52h0Z" style="fill: #6ba0b6;"/>
    <path d="m396.94,105.56h-18.09c.36,1.62.97,3.14,1.84,4.54.87,1.41,1.93,2.63,3.2,3.65,1.26,1.02,2.67,1.82,4.23,2.38,1.56.57,3.21.85,4.95.85,2.1,0,4.06-.42,5.89-1.26,1.83-.84,3.43-2.01,4.82-3.51h10.89c-.36.9-.8,1.76-1.3,2.57-.51.81-1.07,1.61-1.67,2.38-2.16,2.76-4.86,4.97-8.1,6.62-3.24,1.65-6.75,2.47-10.53,2.47-3.3,0-6.39-.61-9.27-1.84-2.88-1.23-5.4-2.93-7.56-5.08-2.16-2.16-3.86-4.68-5.08-7.56-1.23-2.88-1.84-5.97-1.84-9.27s.61-6.39,1.84-9.27c1.23-2.88,2.92-5.4,5.08-7.56s4.68-3.85,7.56-5.08,5.97-1.85,9.27-1.85c3.78,0,7.29.83,10.53,2.48s5.94,3.89,8.1,6.71c1.98,2.4,3.42,5.22,4.32,8.46.54,1.92.81,3.96.81,6.12,0,1.08-.09,2.1-.27,3.06h-19.62Zm-3.87-17.56c-2.94,0-5.57.76-7.88,2.27-2.31,1.51-4.07,3.52-5.26,6.01h26.28c-.3-.47-.58-.95-.85-1.42-.27-.48-.56-.92-.86-1.34-1.38-1.72-3.06-3.07-5.04-4.05s-4.11-1.47-6.39-1.47h0Z" style="fill: #6ba0b6;"/>
  </g>
</svg>